<?xml version="1.0" standalone="no"?>
<!DOCTYPE svg PUBLIC "-//W3C//DTD SVG 20010904//EN"
 "http://www.w3.org/TR/2001/REC-SVG-20010904/DTD/svg10.dtd">
<svg version="1.0" xmlns="http://www.w3.org/2000/svg"
 width="512.000000pt" height="512.000000pt" viewBox="0 0 512.000000 512.000000"
 preserveAspectRatio="xMidYMid meet">
<metadata>
Created by potrace 1.11, written by Peter Selinger 2001-2013
</metadata>
<g transform="translate(0.000000,512.000000) scale(0.100000,-0.100000)"
fill="#000000" stroke="none">
<path d="M2330 5109 c-324 -29 -657 -128 -959 -285 -606 -316 -1078 -891
-1266 -1546 -311 -1079 104 -2220 1036 -2846 458 -308 1037 -463 1581 -424
375 26 699 117 1027 288 606 316 1078 891 1266 1546 311 1079 -104 2220 -1036
2846 -476 320 -1072 472 -1649 421z m580 -174 c511 -76 977 -311 1345 -680
370 -369 602 -830 681 -1350 26 -168 26 -522 0 -690 -79 -520 -311 -981 -681
-1350 -369 -370 -830 -602 -1350 -681 -168 -26 -522 -26 -690 0 -520 79 -981
311 -1350 681 -370 369 -602 830 -681 1350 -26 168 -26 522 0 690 109 715 517
1329 1136 1710 304 187 622 290 1050 339 82 9 431 -3 540 -19z"/>
<path d="M2370 4834 c-439 -54 -748 -162 -1068 -374 -544 -361 -896 -914 -999
-1570 -25 -160 -25 -500 0 -660 103 -656 455 -1209 999 -1570 279 -185 586
-303 928 -357 160 -25 500 -25 660 0 342 54 649 172 928 357 544 361 896 914
999 1570 25 160 25 500 0 660 -54 344 -171 648 -357 928 -359 540 -915 895
-1560 997 -100 16 -452 28 -530 19z m408 -645 c264 -32 543 -146 771 -316 106
-78 273 -251 353 -363 72 -102 171 -291 211 -405 117 -332 117 -758 0 -1090
-40 -114 -138 -303 -211 -405 -86 -122 -270 -306 -392 -392 -102 -73 -291
-171 -405 -211 -332 -117 -758 -117 -1090 0 -114 40 -303 138 -405 211 -122
86 -306 270 -392 392 -73 102 -171 291 -211 405 -117 332 -117 758 0 1090 40
114 138 303 211 405 86 122 270 306 392 392 102 73 291 171 405 211 230 81
498 108 763 76z"/>
<path d="M2330 3844 c-473 -85 -869 -434 -1014 -891 -76 -242 -76 -544 0 -786
127 -399 452 -724 851 -851 242 -76 544 -76 786 0 399 127 724 452 851 851 76
242 76 544 0 786 -63 197 -173 377 -323 528 -193 192 -432 317 -697 363 -109
19 -348 19 -454 0z m340 -154 c268 -29 501 -139 691 -329 446 -446 446 -1156
0 -1602 -446 -446 -1156 -446 -1602 0 -291 291 -401 701 -294 1100 119 442
517 782 972 830 111 12 127 12 233 1z"/>
<path d="M2439 3580 c-376 -47 -705 -304 -836 -650 -51 -138 -66 -217 -66
-370 0 -153 15 -232 66 -370 98 -261 326 -489 587 -587 138 -51 217 -66 370
-66 153 0 232 15 370 66 261 98 489 326 587 587 51 138 66 217 66 370 0 153
-15 232 -66 370 -98 261 -326 489 -587 587 -49 18 -120 40 -157 47 -89 19
-251 27 -334 16z m577 -596 c22 -10 40 -31 54 -59 18 -37 20 -49 10 -84 -29
-107 -173 -132 -230 -39 -38 62 -22 134 39 175 40 27 80 29 127 7z"/>
</g>
</svg>
